<?xml version="1.0" encoding="UTF-8"?>
<svg version="1.1" xmlns="http://www.w3.org/2000/svg" width="500" height="500">
<path d="M0 0 C5.23069727 2.99360154 10.11539486 8.16828972 12.8125 13.5625 C12.93661425 16.08277276 13.00130729 18.57652426 13.02124023 21.09814453 C13.03591591 22.26436592 13.03591591 22.26436592 13.05088806 23.45414734 C13.08086892 26.03451829 13.10223925 28.6148371 13.12109375 31.1953125 C13.12766558 32.0771307 13.1342374 32.9589489 13.14100838 33.86748886 C13.17361973 38.53859604 13.19806171 43.20968031 13.2175293 47.88085938 C13.23531676 51.74155052 13.27009255 55.60150772 13.32006836 59.46191406 C13.38038146 64.12625065 13.41102088 68.78990858 13.42070198 73.45461655 C13.42924218 75.22879808 13.44802496 77.00296219 13.4774456 78.77692032 C13.74076902 95.56349337 13.74076902 95.56349337 8.39002991 101.17965698 C7.86944504 101.63599518 7.34886017 102.09233337 6.8125 102.5625 C6.32611557 103.05549591 5.83973114 103.54849182 5.33860779 104.056427 C0.9383287 108.2085685 -3.64044523 109.27415418 -9.5 109.9375 C-16.11927737 109.26435315 -22.07378068 107.27671985 -26.625 102.25 C-31.13394689 96.69120876 -32.56209161 91.05816383 -32.59155273 84.02587891 C-32.59841599 83.30779556 -32.60527924 82.58971222 -32.61235046 81.84986877 C-32.63052452 79.49606064 -32.62679415 77.14292517 -32.62109375 74.7890625 C-32.62566059 73.13910712 -32.63096766 71.48915364 -32.63697815 69.83920288 C-32.6458912 66.38784031 -32.64350744 62.93670935 -32.63354492 59.48535156 C-32.62206681 55.08171625 -32.64225771 50.67888423 -32.67146206 46.27535439 C-32.68988857 42.86934402 -32.68951867 39.46352379 -32.68382454 36.05747604 C-32.68367206 34.43490854 -32.68965507 32.81232755 -32.70211601 31.18980789 C-32.76597475 21.51126632 -32.7425794 12.98693849 -26.22265625 5.22265625 C-25.24619141 4.43181641 -25.24619141 4.43181641 -24.25 3.625 C-23.60160156 3.07972656 -22.95320312 2.53445312 -22.28515625 1.97265625 C-15.71808944 -2.44207582 -7.30740482 -3.16269102 0 0 Z M210.125 0.125 C216.59847521 3.89235033 220.44440327 9.53284927 222.8125 16.5625 C223.24487305 20.14631653 223.24487305 20.14631653 223.32421875 23.99145508 C223.34244186 24.69817856 223.36066498 25.40490204 223.37944031 26.13304138 C223.43472343 28.44933678 223.46857828 30.76529765 223.5 33.08203125 C223.52959283 34.70717809 223.55971237 36.33231542 223.59033203 37.95744324 C223.65058605 41.35737953 223.69926362 44.75725568 223.74072266 48.1574707 C223.79523086 52.49203984 223.88641725 56.82496397 223.98744202 61.15866566 C224.06015892 64.51386805 224.10909225 67.86911912 224.15151978 71.22482872 C224.17526302 72.82158347 224.20713555 74.41824072 224.24765015 76.01465797 C224.48938368 86.02739395 224.1769595 94.63074508 217.10107422 102.45491028 C212.3021638 107.08601799 206.87523325 109.23435001 200.3125 109.9375 C193.50652787 109.2082887 187.37899209 106.87482063 182.8125 101.5625 C176.71519275 93.1273347 177.11046785 84.12988948 177.21875 74.20703125 C177.22046435 72.53415513 177.22039213 70.86127633 177.21862793 69.18840027 C177.22027323 65.69930984 177.23882958 62.2108681 177.27050781 58.72192383 C177.31027582 54.2633181 177.31453734 49.8055561 177.30704498 45.34680653 C177.303968 41.89882255 177.31612012 38.45102617 177.33317566 35.003088 C177.34017426 33.35935327 177.34333403 31.71559732 177.34248352 30.07184792 C177.34429265 27.77252738 177.3657647 25.4741968 177.39257812 23.17504883 C177.40099731 21.87062332 177.4094165 20.56619781 177.41809082 19.22224426 C178.1163803 12.74277814 180.80957611 6.90253648 185.8125 2.5625 C193.13304023 -2.20470664 202.01508962 -3.45017042 210.125 0.125 Z M-66.35546875 37.46484375 C-65.06318359 37.46806641 -63.77089844 37.47128906 -62.43945312 37.47460938 C-61.08463474 37.48296335 -59.72981703 37.49142828 -58.375 37.5 C-57.00065265 37.50502 -55.62630355 37.50958203 -54.25195312 37.51367188 C-50.89709076 37.52544332 -47.54231779 37.54188717 -44.1875 37.5625 C-44.18163376 38.20428192 -44.17576752 38.84606384 -44.16972351 39.5072937 C-44.10548382 46.22421973 -44.02098698 52.94068012 -43.92504883 59.65722656 C-43.89192081 62.15944251 -43.86385167 64.66173101 -43.84106445 67.1640625 C-43.80729548 70.77375019 -43.75496726 74.38278024 -43.69921875 77.9921875 C-43.69282883 79.09988495 -43.6864389 80.2075824 -43.67985535 81.34884644 C-43.46671634 92.76639578 -40.88971984 101.92171179 -33.1875 110.5625 C-24.80434116 117.84696836 -16.39923644 118.98969363 -5.59765625 118.81640625 C3.07580286 118.17061605 10.05163584 114.77080482 15.9375 108.3125 C21.16644115 101.93072143 23.89296066 95.40952893 24.00195312 87.16723633 C24.01867065 86.08964554 24.03538818 85.01205475 24.0526123 83.90180969 C24.06618774 82.74440781 24.07976318 81.58700592 24.09375 80.39453125 C24.12136414 78.60869881 24.12136414 78.60869881 24.14953613 76.78678894 C24.22829523 71.68778541 24.29618072 66.5886512 24.36474609 61.48950195 C24.41630676 57.77027514 24.47360241 54.05116787 24.53125 50.33203125 C24.54482544 49.16855667 24.55840088 48.00508209 24.5723877 46.80635071 C24.58910522 45.7382164 24.60582275 44.67008209 24.62304688 43.56958008 C24.63557495 42.62456131 24.64810303 41.67954254 24.66101074 40.70588684 C24.8125 38.5625 24.8125 38.5625 25.8125 37.5625 C27.61979646 37.46390305 29.43098298 37.43617877 31.2409668 37.43551636 C32.41887787 37.43269653 33.59678894 37.42987671 34.81039429 37.42697144 C36.11433136 37.42899567 37.41826843 37.4310199 38.76171875 37.43310547 C40.13953701 37.43175145 41.51735491 37.42997151 42.89517212 37.42779541 C46.64713547 37.42322116 50.39907145 37.4250106 54.15103531 37.4281745 C58.06903408 37.43069814 61.98703044 37.42836055 65.9050293 37.42678833 C72.48584415 37.42496665 79.06664779 37.42737291 85.64746094 37.43212891 C93.26655443 37.43757153 100.88562117 37.43580887 108.50471401 37.4303025 C115.03463438 37.42577133 121.56454668 37.42512084 128.09446812 37.42774117 C131.99961854 37.42930393 135.90475638 37.42949775 139.80990601 37.42620468 C143.48044468 37.42332591 147.1509487 37.42530175 150.82148361 37.43109894 C152.81919049 37.43306214 154.81690028 37.43007267 156.81460571 37.42697144 C157.99251678 37.42979126 159.17042786 37.43261108 160.3840332 37.43551636 C161.41422073 37.43589338 162.44440826 37.43627041 163.5058136 37.43665886 C165.8125 37.5625 165.8125 37.5625 166.8125 38.5625 C166.91456822 40.19728775 166.94819716 41.8364058 166.9543457 43.47436523 C166.96138016 44.52313339 166.96841461 45.57190155 166.97566223 46.65245056 C166.97982651 47.79710281 166.98399078 48.94175507 166.98828125 50.12109375 C167.01149768 52.53321168 167.03561573 54.94532106 167.06054688 57.35742188 C167.09554169 61.16892042 167.12492956 64.98010907 167.13842773 68.79174805 C167.15398888 72.46441678 167.19427492 76.13616957 167.23828125 79.80859375 C167.23541862 81.49824501 167.23541862 81.49824501 167.23249817 83.22203064 C167.39844152 94.06094346 170.56980281 102.45444159 177.8125 110.5625 C185.8785858 118.02362937 194.34319576 119.04828342 204.9453125 118.83984375 C212.66978566 118.28586638 219.58747216 115.78091593 225.25 110.390625 C233.66187676 100.5487292 235.09715381 90.71272691 235.2265625 78.1875 C235.24592865 77.0224292 235.2652948 75.8573584 235.2852478 74.65698242 C235.34472524 70.95889462 235.39130164 67.26077515 235.4375 63.5625 C235.47570905 61.04555982 235.51476246 58.5286323 235.5546875 56.01171875 C235.65040053 49.86209213 235.73554014 43.71238837 235.8125 37.5625 C239.72265628 37.46208113 243.63229251 37.39031981 247.54345703 37.34277344 C249.51231341 37.3132525 251.48081298 37.26237323 253.44921875 37.2109375 C267.04733136 37.0728856 277.65846 40.32136265 287.8125 49.5625 C297.09187531 59.65252705 299.4277062 72.12507353 299.31370544 85.44094849 C299.31923984 86.66936049 299.32477424 87.8977725 299.33047634 89.16340911 C299.34164206 92.53360282 299.33513978 95.90287877 299.32073963 99.27300048 C299.30954877 102.92266369 299.32159892 106.5722647 299.33058167 110.22192383 C299.34446052 117.35537147 299.33699817 124.48864117 299.32190608 131.62208022 C299.30498282 139.93989323 299.30826411 148.25766269 299.31200016 156.5754876 C299.31786875 171.42129186 299.30374562 186.26701111 299.27905273 201.11279297 C299.25512625 215.49954412 299.24805314 229.88618174 299.25854492 244.27294922 C299.26996755 259.96410194 299.27186826 275.65520226 299.25744683 291.34635437 C299.25592108 293.02105259 299.25440073 294.69575083 299.25288582 296.37044907 C299.252128 297.19429947 299.25137019 298.01814988 299.25058941 298.86696545 C299.24585765 304.6573319 299.24769008 310.44767485 299.25195122 316.23804092 C299.25688999 323.29826905 299.25083944 330.3583901 299.23105692 337.41859378 C299.22122091 341.01697171 299.21603965 344.61518699 299.22394943 348.21357346 C299.23236429 352.12182431 299.21735792 356.02979238 299.20018005 359.9380188 C299.2061901 361.06439448 299.21220014 362.19077015 299.21839231 363.35127842 C299.11608526 376.18706234 295.86246232 385.5314627 287.5 395.25 C276.5421359 404.67885981 267.15194475 407.01659327 252.82731628 406.95018005 C251.41741507 406.95435813 250.00751722 406.95983824 248.59762555 406.96649987 C244.7417212 406.98091139 240.88603137 406.97672326 237.03011549 406.96933305 C232.86434083 406.96459295 228.69861202 406.97711874 224.53285217 406.98735046 C216.37853795 407.00452792 208.22430081 407.00538058 200.06997319 407.00013756 C193.43984777 406.99609229 186.80974509 406.99754366 180.17962074 407.00288582 C179.23513128 407.00363424 178.29064182 407.00438266 177.31753147 407.00515376 C175.39864005 407.00668528 173.47974863 407.00822363 171.56085721 407.00976873 C153.57394246 407.02349023 135.58707123 407.01805878 117.60015748 407.00658352 C101.15794982 406.99665381 84.71585473 407.0095879 68.27366444 407.03351771 C51.37736444 407.0579225 34.48111685 407.06751304 17.58479959 407.06086498 C8.10422607 407.05737554 -1.3762609 407.05958659 -10.85682106 407.07711601 C-18.92832109 407.09185533 -26.99967365 407.09245096 -35.07117084 407.0750451 C-39.18612883 407.06654653 -43.30082357 407.06435736 -47.41576767 407.07969666 C-51.18922068 407.09358833 -54.96218604 407.08872378 -58.73561116 407.06945742 C-60.73350765 407.06394773 -62.73142924 407.07793157 -64.72927791 407.09281152 C-76.97320973 406.99347357 -87.26596138 404.25346208 -96.1875 395.5625 C-103.24516739 387.82590711 -107.30447389 378.7886193 -107.31892776 368.27715874 C-107.32276891 367.22548511 -107.32661005 366.17381149 -107.3305676 365.09026897 C-107.32926787 363.3666071 -107.32926787 363.3666071 -107.32794189 361.60812378 C-107.33091302 360.38246362 -107.33388414 359.15680346 -107.3369453 357.89400208 C-107.3441187 354.49464635 -107.34680408 351.09534117 -107.34754276 347.6959815 C-107.34939581 344.02847066 -107.35694446 340.36097071 -107.36367798 336.69346619 C-107.37725229 328.67468589 -107.38328476 320.6559106 -107.38768864 312.63712072 C-107.39045286 307.6279639 -107.39469058 302.618809 -107.39919281 297.60965347 C-107.41138483 283.7348359 -107.42168393 269.86001988 -107.4250679 255.98519707 C-107.42528747 255.09738887 -107.42550703 254.20958067 -107.42573325 253.29486919 C-107.42595153 252.4049604 -107.42616981 251.51505161 -107.4263947 250.59817588 C-107.42683816 248.79494278 -107.42728473 246.99170967 -107.42773438 245.18847656 C-107.4279558 244.29401444 -107.42817723 243.39955231 -107.42840537 242.47798528 C-107.4323517 227.99099206 -107.44980096 213.50404918 -107.4730939 199.0170754 C-107.49682732 184.13572869 -107.50927068 169.25440722 -107.51043582 154.37304127 C-107.51135152 146.02089198 -107.5170772 137.66880828 -107.53525543 129.31667709 C-107.55068337 122.20320796 -107.55576107 115.0898247 -107.54751733 107.97634201 C-107.54362019 104.34965259 -107.5444943 100.72313594 -107.55857468 97.09646797 C-107.57372837 93.15716422 -107.56541924 89.21810138 -107.55499268 85.27877808 C-107.56304908 84.14305449 -107.57110548 83.00733091 -107.57940602 81.83719146 C-107.50319477 69.49368179 -104.56431446 58.6478494 -96.18359375 49.3359375 C-87.6704308 41.20350634 -78.04010343 37.41336959 -66.35546875 37.46484375 Z M-72.1875 137.5625 C-72.22875 175.780625 -72.27 213.99875 -72.3125 253.375 C-72.33070801 265.45971924 -72.34891602 277.54443848 -72.36767578 289.99536133 C-72.37436304 300.79152622 -72.37436304 300.79152622 -72.37838745 311.58769226 C-72.38025704 316.41091233 -72.38777688 321.23408873 -72.39865112 326.05729675 C-72.41231909 332.20056087 -72.41649165 338.34376106 -72.41364455 344.48703897 C-72.41424033 346.74726225 -72.41823576 349.00748766 -72.42593026 351.26769793 C-72.43580978 354.30992052 -72.43350515 357.35189146 -72.42800903 360.39411926 C-72.43383436 361.28782573 -72.43965969 362.18153219 -72.44566154 363.10232067 C-72.43765156 368.13046411 -72.43765156 368.13046411 -70.1875 372.5625 C-67.71118205 373.01786954 -67.71118205 373.01786954 -64.76202393 372.94002342 C-63.6027879 372.94784666 -62.44355186 372.95566991 -61.24918747 372.96373022 C-59.96458256 372.95703805 -58.67997765 372.95034589 -57.35644531 372.94345093 C-55.98670706 372.94690462 -54.61697159 372.95166724 -53.24724197 372.95763266 C-49.47022443 372.97021215 -45.69343286 372.96394098 -41.91641426 372.95467401 C-37.84819088 372.94791211 -33.78000753 372.95835047 -29.71179199 372.96661377 C-21.73700203 372.979984 -13.76229657 372.97705877 -5.78750324 372.96837585 C0.69127282 372.96161261 7.17002513 372.96067667 13.64880371 372.9639473 C15.02966097 372.96463684 15.02966097 372.96463684 16.43841434 372.96534032 C18.30828381 372.96629946 20.17815328 372.9672721 22.04802275 372.9682581 C39.59968051 372.97682163 57.15129135 372.96696278 74.70294142 372.950857 C89.77724488 372.93745294 104.85147904 372.93978077 119.92578125 372.95361328 C137.41277331 372.96965212 154.89972418 372.97599756 172.38672256 372.96677649 C174.24988047 372.9658208 176.11303837 372.96487769 177.97619629 372.9639473 C179.3514161 372.96325306 179.3514161 372.96325306 180.75441813 372.96254479 C187.22866345 372.9599498 193.70288274 372.96433683 200.17712402 372.97138596 C208.06241411 372.97978235 215.94761456 372.97756019 223.83289433 372.96154372 C227.85943602 372.95363581 231.88582804 372.950612 235.91236877 372.96049118 C239.59360686 372.96938685 243.27455557 372.96459088 246.95576715 372.94855852 C248.92857414 372.94358424 250.90140099 372.95345296 252.87418747 372.96373022 C254.0334235 372.95590697 255.19265953 372.94808373 256.38702393 372.94002342 C257.39371754 372.93953637 258.40041115 372.93904931 259.43761063 372.93854749 C260.61318087 372.75240398 260.61318087 372.75240398 261.8125 372.5625 C264.48432469 368.55476296 264.08333588 365.04678419 264.05300903 360.39411926 C264.05472107 359.44646698 264.05643311 358.4988147 264.05819702 357.52244568 C264.06151879 354.32323793 264.05044188 351.12423758 264.03955078 347.92504883 C264.0389384 345.60182801 264.0392046 343.27860681 264.0402813 340.95538616 C264.04073386 334.71920618 264.02912026 328.48310254 264.01506042 322.24694061 C264.00369254 316.40074923 264.00313538 310.55457666 264.00170898 304.70837402 C263.99120343 287.59723919 263.96328127 270.48611864 263.9375 253.375 C263.89625 215.156875 263.855 176.93875 263.8125 137.5625 C152.9325 137.5625 42.0525 137.5625 -72.1875 137.5625 Z M-24.84985352 183.15844727 C-23.80849747 183.14576309 -22.76714142 183.13307892 -21.69422913 183.12001038 C-20.57954758 183.12294601 -19.46486603 183.12588165 -18.31640625 183.12890625 C-17.16132065 183.1236644 -16.00623505 183.11842255 -14.81614685 183.11302185 C-12.37605594 183.10660519 -9.93593408 183.107934 -7.49584961 183.11645508 C-3.7668537 183.12496155 -0.03939138 183.09620159 3.68945312 183.06445312 C6.06249954 183.0628409 8.43554867 183.06341905 10.80859375 183.06640625 C12.47757973 183.04955528 12.47757973 183.04955528 14.18028259 183.03236389 C20.32503396 183.08755121 24.23193546 183.28237755 28.8125 187.5625 C31.56365613 191.10111576 31.11849643 195.35431807 31.11328125 199.65234375 C31.11756638 200.43388321 31.1218515 201.21542267 31.12626648 202.02064514 C31.13199915 203.67057325 31.13251787 205.32052663 31.12817383 206.97045898 C31.12501517 209.48790831 31.14848036 212.00418034 31.17382812 214.52148438 C31.17610145 216.12760269 31.17680446 217.73372415 31.17578125 219.33984375 C31.184991 220.08894516 31.19420074 220.83804657 31.20368958 221.60984802 C31.15517498 227.12007889 29.8394391 230.19773772 26.3125 234.3125 C23.41172407 236.72981328 20.48937093 236.6957097 16.88549805 236.72363281 C15.88403244 236.73324036 14.88256683 236.7428479 13.85075378 236.75274658 C12.76949722 236.75699646 11.68824066 236.76124634 10.57421875 236.765625 C8.90393364 236.77417511 8.90393364 236.77417511 7.1999054 236.78289795 C4.84202017 236.79234909 2.48412173 236.79888238 0.1262207 236.80273438 C-3.47533308 236.81243357 -7.0763147 236.843454 -10.67773438 236.875 C-12.96874661 236.88153078 -15.25976293 236.88678096 -17.55078125 236.890625 C-19.16355705 236.9091452 -19.16355705 236.9091452 -20.80891418 236.92803955 C-30.60692352 236.89895245 -30.60692352 236.89895245 -35.1875 233.5625 C-38.61192498 229.5311863 -38.62744004 225.48685254 -38.5859375 220.41015625 C-38.58880768 219.63240341 -38.59167786 218.85465057 -38.59463501 218.05332947 C-38.59667025 216.41355661 -38.59117823 214.77375918 -38.57861328 213.1340332 C-38.56257272 210.63632358 -38.57846809 208.14023726 -38.59765625 205.64257812 C-38.5956733 204.04426729 -38.59182854 202.44595746 -38.5859375 200.84765625 C-38.59201019 200.10685318 -38.59808289 199.36605011 -38.6043396 198.60279846 C-38.54054487 193.85246905 -37.84091176 190.52522297 -35.1875 186.5625 C-31.65449378 184.01663605 -29.18152016 183.18409993 -24.84985352 183.15844727 Z M74.03662109 183.27197266 C75.07805267 183.25921295 76.11948425 183.24645325 77.19247437 183.23330688 C78.3123172 183.23108124 79.43216003 183.22885559 80.5859375 183.2265625 C81.74243805 183.2199057 82.8989386 183.2132489 84.09048462 183.20639038 C86.53654388 183.19626677 88.98263075 183.19157327 91.42871094 183.19189453 C95.16647992 183.18752458 98.90306517 183.15120852 102.640625 183.11328125 C105.01822513 183.10741241 107.39583087 183.10344347 109.7734375 183.1015625 C110.88923187 183.08719147 112.00502625 183.07282043 113.15463257 183.05801392 C119.33951707 183.09433719 123.15824703 183.32779072 127.8125 187.5625 C130.39347834 191.43396751 130.15426303 194.71559919 130.18359375 199.2109375 C130.19262222 200.06048004 130.2016507 200.91002258 130.21095276 201.78530884 C130.22545742 203.58242264 130.23434254 205.37958928 130.23803711 207.17675781 C130.24992777 209.92083137 130.29910312 212.6626515 130.34960938 215.40625 C130.35907457 217.15363487 130.36630914 218.90103354 130.37109375 220.6484375 C130.39062607 221.4662973 130.41015839 222.2841571 130.43028259 223.12680054 C130.39693091 227.35630224 130.20957616 229.05294934 127.52758789 232.49462891 C123.51093149 235.55380341 120.86330544 236.80885761 115.7878418 236.85302734 C114.78967941 236.86578705 113.79151703 236.87854675 112.7631073 236.89169312 C111.15366997 236.89503159 111.15366997 236.89503159 109.51171875 236.8984375 C108.40198196 236.9050943 107.29224518 236.9117511 106.14888 236.91860962 C103.80117449 236.92873273 101.45344021 236.93342675 99.10571289 236.93310547 C95.5237652 236.93747104 91.94305723 236.97377514 88.36132812 237.01171875 C86.0781292 237.01758854 83.79492444 237.02155685 81.51171875 237.0234375 C80.44483322 237.03780853 79.37794769 237.05217957 78.2787323 237.06698608 C71.90794849 237.02808141 67.96833568 236.40860639 62.8125 232.5625 C60.22845091 228.68642637 60.48874459 225.41278266 60.4765625 220.9140625 C60.4699057 220.06451996 60.4632489 219.21497742 60.45639038 218.33969116 C60.44626694 216.54256352 60.44157327 214.74539831 60.44189453 212.94824219 C60.43752697 210.20444433 60.40122135 207.46226262 60.36328125 204.71875 C60.35741181 202.97135966 60.35344327 201.22396169 60.3515625 199.4765625 C60.33719147 198.6587027 60.32282043 197.8408429 60.30801392 196.99819946 C60.33918294 193.09401171 60.52424865 191.03764393 62.59130859 187.63037109 C66.27265397 184.20313485 69.03282753 183.31368333 74.03662109 183.27197266 Z M174.03662109 183.27197266 C175.07805267 183.25921295 176.11948425 183.24645325 177.19247437 183.23330688 C178.3123172 183.23108124 179.43216003 183.22885559 180.5859375 183.2265625 C181.74243805 183.2199057 182.8989386 183.2132489 184.09048462 183.20639038 C186.53654388 183.19626677 188.98263075 183.19157327 191.42871094 183.19189453 C195.16647992 183.18752458 198.90306517 183.15120852 202.640625 183.11328125 C205.01822513 183.10741241 207.39583087 183.10344347 209.7734375 183.1015625 C210.88923187 183.08719147 212.00502625 183.07282043 213.15463257 183.05801392 C219.28832448 183.09403654 223.28941913 183.20883685 227.8125 187.5625 C230.26014599 191.62678202 230.11910233 195.90654975 230.11328125 200.53125 C230.11756638 201.28917847 230.1218515 202.04710693 230.12626648 202.82800293 C230.13199015 204.42487594 230.13252455 206.02177501 230.12817383 207.61865234 C230.12500998 210.0548155 230.14850932 212.48976766 230.17382812 214.92578125 C230.17610103 216.48176931 230.17680466 218.03776062 230.17578125 219.59375 C230.184991 220.31784058 230.19420074 221.04193115 230.20368958 221.78796387 C230.15432882 227.21006556 228.78226257 230.26444367 225.3125 234.3125 C222.41172407 236.72981328 219.48937093 236.6957097 215.88549805 236.72363281 C214.88403244 236.73324036 213.88256683 236.7428479 212.85075378 236.75274658 C211.76949722 236.75699646 210.68824066 236.76124634 209.57421875 236.765625 C207.90393364 236.77417511 207.90393364 236.77417511 206.1999054 236.78289795 C203.84202017 236.79234909 201.48412173 236.79888238 199.1262207 236.80273438 C195.52466692 236.81243357 191.9236853 236.843454 188.32226562 236.875 C186.03125339 236.88153078 183.74023707 236.88678096 181.44921875 236.890625 C179.83644295 236.9091452 179.83644295 236.9091452 178.19108582 236.92803955 C171.62843041 236.90855716 167.03664866 236.45311604 161.96459961 231.90576172 C160.23463854 228.38718441 160.36467334 224.90890257 160.37890625 221.0703125 C160.3736644 220.24675262 160.36842255 219.42319275 160.36302185 218.57467651 C160.35660757 216.83478928 160.35793099 215.09485865 160.36645508 213.35498047 C160.37494936 210.70330817 160.34622334 208.05380245 160.31445312 205.40234375 C160.31284047 203.70833398 160.31341988 202.01432041 160.31640625 200.3203125 C160.30517227 199.53262482 160.29393829 198.74493713 160.28236389 197.93338013 C160.34785598 192.71531671 161.29013441 189.6541642 164.8125 185.5625 C167.93234113 183.59481158 170.3804239 183.30245002 174.03662109 183.27197266 Z M-16.46875 272.1640625 C-14.94368835 272.15975723 -14.94368835 272.15975723 -13.38781738 272.15536499 C-11.2463322 272.15333092 -9.10482815 272.15881461 -6.96337891 272.17138672 C-3.69781692 272.18744925 -0.43349254 272.17151512 2.83203125 272.15234375 C4.91927355 272.1543263 7.00651508 272.15817021 9.09375 272.1640625 C10.06372925 272.15798981 11.0337085 272.15191711 12.03308105 272.1456604 C17.71094805 272.2041585 21.89597171 272.6093095 26.8125 275.5625 C30.83325138 280.03072737 31.40755006 284.00002885 31.34375 289.8125 C31.34949036 290.97700684 31.34949036 290.97700684 31.35534668 292.16503906 C31.35805654 293.7988414 31.35076031 295.4326878 31.33398438 297.06640625 C31.31255871 299.55567896 31.33381466 302.04206618 31.359375 304.53125 C31.35673156 306.12500632 31.35160623 307.71876085 31.34375 309.3125 C31.35184692 310.05016602 31.35994385 310.78783203 31.36828613 311.54785156 C31.27590623 316.68334756 30.06785583 319.61947608 26.8125 323.5625 C23.48991517 325.77755655 22.39538543 325.82557939 18.51831055 325.86889648 C16.89598763 325.89287758 16.89598763 325.89287758 15.2408905 325.91734314 C14.07213882 325.92270584 12.90338715 325.92806854 11.69921875 325.93359375 C9.89575737 325.94713646 9.89575737 325.94713646 8.05586243 325.96095276 C5.50967912 325.97547242 2.96345836 325.98434623 0.41723633 325.98803711 C-3.47443763 325.99992193 -7.36452072 326.04908531 -11.25585938 326.09960938 C-13.72915892 326.10907464 -16.20246822 326.11630918 -18.67578125 326.12109375 C-20.41979973 326.15039223 -20.41979973 326.15039223 -22.1990509 326.18028259 C-31.21785508 326.13004099 -31.21785508 326.13004099 -34.90698242 323.15258789 C-38.5706658 318.99157548 -38.37522977 315.82346615 -38.42578125 310.484375 C-38.433853 309.68018127 -38.44192474 308.87598755 -38.45024109 308.04742432 C-38.46408298 306.3426733 -38.47480467 304.63789455 -38.48266602 302.93310547 C-38.4998421 300.33637256 -38.54372084 297.74092524 -38.58789062 295.14453125 C-38.59802105 293.48698852 -38.60653606 291.82943497 -38.61328125 290.171875 C-38.63078934 289.39978699 -38.64829742 288.62769897 -38.66633606 287.83221436 C-38.64568439 282.6518798 -37.80408374 279.53689663 -34.1875 275.5625 C-28.4311574 272.10486175 -23.06521484 272.12276439 -16.46875 272.1640625 Z M82.43359375 272.26171875 C83.45171646 272.25743362 84.46983917 272.2531485 85.51881409 272.24873352 C87.66626239 272.24300535 89.8137301 272.24247878 91.96118164 272.24682617 C95.23552737 272.24998603 98.50896895 272.22650777 101.78320312 272.20117188 C103.87499887 272.19889863 105.96679702 272.1981955 108.05859375 272.19921875 C109.03171005 272.190009 110.00482635 272.18079926 111.00743103 272.17131042 C117.97204841 272.21840853 122.84954025 272.90971898 128.21459961 277.71313477 C130.34345738 281.50929963 130.40565687 284.91002161 130.37890625 289.15234375 C130.38510483 289.97448868 130.39130341 290.79663361 130.39768982 291.64369202 C130.40477431 293.37760233 130.40163789 295.11158087 130.38891602 296.84545898 C130.37505897 299.48875026 130.40912544 302.12849232 130.44726562 304.77148438 C130.44821702 306.46093836 130.44635688 308.15039675 130.44140625 309.83984375 C130.45466446 310.62439438 130.46792267 311.40894501 130.48158264 312.2172699 C130.38436842 317.98970143 128.95494459 320.52957146 124.8125 324.5625 C122.27860025 325.82944988 120.46858201 325.71715155 117.63183594 325.75537109 C116.55021179 325.77143402 115.46858765 325.78749695 114.35418701 325.80404663 C109.40035581 325.84845712 104.4466595 325.88956745 99.49267578 325.91259766 C96.87962944 325.92915442 94.26662833 325.95644029 91.65380859 325.99462891 C87.88875804 326.04938808 84.12477014 326.07127235 80.359375 326.0859375 C78.61065094 326.11994156 78.61065094 326.11994156 76.82659912 326.15463257 C67.7783416 326.13106549 67.7783416 326.13106549 64.09082031 323.15478516 C59.09626635 317.47195468 60.51138022 309.73340569 60.46240234 302.50585938 C60.44586577 300.71731534 60.41860588 298.92883677 60.38037109 297.140625 C60.32542966 294.55694427 60.30370157 291.97481228 60.2890625 289.390625 C60.26639313 288.59666321 60.24372375 287.80270142 60.22036743 286.98468018 C60.23528796 283.03796244 60.55166679 280.33845202 62.97021484 277.13574219 C68.80625619 271.85212461 74.94940632 272.25472371 82.43359375 272.26171875 Z M182.53125 272.1640625 C184.05631165 272.15975723 184.05631165 272.15975723 185.61218262 272.15536499 C187.7536678 272.15333092 189.89517185 272.15881461 192.03662109 272.17138672 C195.30218308 272.18744925 198.56650746 272.17151512 201.83203125 272.15234375 C203.91927355 272.1543263 206.00651508 272.15817021 208.09375 272.1640625 C209.06372925 272.15798981 210.0337085 272.15191711 211.03308105 272.1456604 C216.71094805 272.2041585 220.89597171 272.6093095 225.8125 275.5625 C229.83325138 280.03072737 230.40755006 284.00002885 230.34375 289.8125 C230.34949036 290.97700684 230.34949036 290.97700684 230.35534668 292.16503906 C230.35805654 293.7988414 230.35076031 295.4326878 230.33398438 297.06640625 C230.31255871 299.55567896 230.33381466 302.04206618 230.359375 304.53125 C230.35673156 306.12500632 230.35160623 307.71876085 230.34375 309.3125 C230.35184692 310.05016602 230.35994385 310.78783203 230.36828613 311.54785156 C230.27590623 316.68334756 229.06785583 319.61947608 225.8125 323.5625 C222.4852562 325.78066253 221.40026007 325.82195089 217.51831055 325.85302734 C216.43676193 325.86578705 215.35521332 325.87854675 214.2408905 325.89169312 C213.07213882 325.89391876 211.90338715 325.89614441 210.69921875 325.8984375 C208.89575737 325.9084227 208.89575737 325.9084227 207.05586243 325.91860962 C204.50966931 325.9287435 201.96344959 325.93342641 199.41723633 325.93310547 C195.5257571 325.9374711 191.63541854 325.97376468 187.74414062 326.01171875 C185.27083721 326.01758823 182.79752841 326.02155674 180.32421875 326.0234375 C178.58020027 326.04499405 178.58020027 326.04499405 176.8009491 326.06698608 C170.53812804 326.03166383 166.51850191 325.88813241 161.8125 321.5625 C160.20027723 318.33805446 160.60686214 314.80998105 160.57421875 311.265625 C160.566147 310.43923523 160.55807526 309.61284546 160.54975891 308.76141357 C160.53591629 307.00958352 160.52519493 305.25772648 160.51733398 303.50585938 C160.50015583 300.83671304 160.45627711 298.16881669 160.41210938 295.5 C160.40197918 293.7968841 160.3934641 292.09375767 160.38671875 290.390625 C160.36921066 289.59666321 160.35170258 288.80270142 160.33366394 287.98468018 C160.35399359 282.74599798 161.14047952 279.57699449 164.8125 275.5625 C170.5688426 272.10486175 175.93478516 272.12276439 182.53125 272.1640625 Z " fill="#070707" transform="translate(154.1875,47.4375)"/>
</svg>
