<?xml version="1.0" encoding="UTF-8"?>
<svg version="1.1" xmlns="http://www.w3.org/2000/svg" width="627" height="398">
<path d="M0 0 C4.97587531 0.28124513 8.57728957 2.15051966 12.875 4.5625 C14.02742188 5.20316406 15.17984375 5.84382812 16.3671875 6.50390625 C17.23601562 6.99761719 18.10484375 7.49132812 19 8 C19 8.66 19 9.32 19 10 C20.175625 10.29970703 20.175625 10.29970703 21.375 10.60546875 C26.36844674 12.5264391 30.55331398 15.36657051 35 18.3125 C35.8765625 18.88162109 36.753125 19.45074219 37.65625 20.03710938 C42.35476011 23.11873762 46.77422472 26.29549634 51 30 C50.39375329 34.37616698 48.69915471 37.86631632 46.61328125 41.69921875 C46.27378952 42.33430862 45.93429779 42.9693985 45.58451843 43.62373352 C44.86546658 44.96588206 44.14329599 46.30636383 43.41821289 47.64526367 C42.32724165 49.66027237 41.24578965 51.68014504 40.16601562 53.70117188 C36.691114 60.18063249 33.14503361 66.58965655 29.29492188 72.85644531 C25.86554026 78.53328743 22.82254422 84.4378779 19.7265625 90.30078125 C19.12871948 91.43277954 19.12871948 91.43277954 18.51879883 92.58764648 C17.73051261 94.08237499 16.94382187 95.5779463 16.15893555 97.07446289 C14.20545762 100.78559753 12.18582531 104.41870429 10 108 C9.18033883 109.45432044 8.36762252 110.91258074 7.5625 112.375 C6.05941979 115.0940048 4.54747459 117.80601589 3 120.5 C1.47644312 123.1539378 -0.01692191 125.82322491 -1.5 128.5 C-3.30349142 131.75508207 -5.1333496 134.99278192 -6.98828125 138.21875 C-8.07635407 140.13443033 -9.13076768 142.06686511 -10.1875 144 C-12.96898425 149.03980532 -15.95913088 153.95148439 -18.96557617 158.859375 C-20.60238014 161.55372552 -21.99935493 163.99806478 -23 167 C-23.66 167 -24.32 167 -25 167 C-25.20496094 167.76441406 -25.40992187 168.52882812 -25.62109375 169.31640625 C-27.56386812 174.50631059 -30.30421183 179.14161746 -33.0625 183.9375 C-33.64306152 184.95352295 -34.22362305 185.9695459 -34.82177734 187.01635742 C-36.54039423 190.01527506 -38.26848902 193.00851241 -40 196 C-40.4758252 196.8259668 -40.95165039 197.65193359 -41.44189453 198.50292969 C-42.66042665 200.61166596 -43.88939192 202.71373481 -45.125 204.8125 C-45.65492554 205.7260022 -45.65492554 205.7260022 -46.19555664 206.65795898 C-47.94421315 209.58605122 -49.10041998 211.06694665 -52 213 C-56.48138631 212.67724088 -59.90814473 211.29129953 -63.875 209.25 C-65.32519531 208.51523437 -65.32519531 208.51523437 -66.8046875 207.765625 C-74.18232523 203.68898411 -81.18571906 198.9657345 -88.25 194.375 C-89.13429688 193.80265625 -90.01859375 193.2303125 -90.9296875 192.640625 C-92.20972656 191.80917969 -92.20972656 191.80917969 -93.515625 190.9609375 C-94.28165039 190.46384277 -95.04767578 189.96674805 -95.83691406 189.45458984 C-96.9076416 188.73456787 -96.9076416 188.73456787 -98 188 C-98.7439502 187.50290527 -99.48790039 187.00581055 -100.25439453 186.49365234 C-102 185 -102 185 -102.4140625 182.140625 C-101.96496498 178.73426269 -101.10024 176.70502647 -99.375 173.75 C-98.55128906 172.31720703 -98.55128906 172.31720703 -97.7109375 170.85546875 C-96.1507023 168.25151457 -94.5783483 165.65550077 -93 163.0625 C-90.91588669 159.63362463 -89.06252074 156.17285797 -87.3125 152.5625 C-84.23323462 146.27465626 -80.72837001 140.27417141 -77.18896484 134.23876953 C-73.78758388 128.4193011 -70.54951887 122.53528148 -67.46142578 116.54370117 C-66.14834432 114.02015604 -65.02629684 112.02629684 -63 110 C-62.731875 109.319375 -62.46375 108.63875 -62.1875 107.9375 C-60.49234855 103.74423062 -58.22961284 99.9304422 -56 96 C-55.35933594 94.85402344 -54.71867187 93.70804687 -54.05859375 92.52734375 C-49.41190618 84.21647188 -44.67105022 75.96413744 -39.88525391 67.73266602 C-36.97100561 62.70921893 -34.14177765 57.6500866 -31.390625 52.53515625 C-29.81241284 49.65802229 -28.16222203 46.82939097 -26.5 44 C-22.83599421 37.76304791 -19.23602143 31.47204286 -16 25 C-15.34 25 -14.68 25 -14 25 C-13.88011719 24.26265625 -13.76023437 23.5253125 -13.63671875 22.765625 C-11.81056701 14.83362846 -5.71914901 5.71914901 0 0 Z M423 0 C426.79867184 4.6200063 429.51318402 9.67563671 432.30859375 14.9453125 C434.83251062 19.50351802 437.64727585 23.86616761 440.4609375 28.25 C442 31 442 31 442 34 C442.66 34 443.32 34 444 34 C444.4021875 34.73089844 444.4021875 34.73089844 444.8125 35.4765625 C449.77659217 44.4576503 454.80190485 53.41347439 460.125 62.1875 C462.73586264 66.5035602 465.16565426 70.90193406 467.5625 75.33984375 C469.27882372 78.51597542 471.03058922 81.67128737 472.7890625 84.82421875 C473.60078426 86.28269946 474.40803511 87.7436769 475.2109375 89.20703125 C477.36963198 93.13255529 479.59488354 96.99354712 481.9375 100.8125 C484.79411722 105.51708352 487.22918375 110.37388784 489.60546875 115.3359375 C490.88881099 117.7875885 492.30866915 119.82141594 494 122 C495.01847486 123.99065541 496.01517978 125.99248185 497 128 C499.68957363 133.01057605 502.54023291 137.91976418 505.4375 142.8125 C508.25315856 147.62207986 510.80770974 152.49816252 513.24609375 157.5078125 C514.65104497 160.30519867 516.10209407 163.05576812 517.59765625 165.8046875 C518.05487061 166.65087646 518.51208496 167.49706543 518.9831543 168.36889648 C519.89691532 170.05521112 520.81871652 171.73719872 521.74926758 173.41430664 C522.16974365 174.19410889 522.59021973 174.97391113 523.0234375 175.77734375 C523.40419434 176.47077881 523.78495117 177.16421387 524.17724609 177.87866211 C525.17269129 180.44525656 525.32774754 182.26960869 525 185 C522.95049205 186.88358077 521.11550162 188.3058241 518.8125 189.8125 C518.18045654 190.24336914 517.54841309 190.67423828 516.8972168 191.11816406 C514.94592009 192.43572083 512.97800607 193.72295232 511 195 C510.12794922 195.56436768 510.12794922 195.56436768 509.23828125 196.14013672 C489.1860092 209 489.1860092 209 485 209 C485 209.66 485 210.32 485 211 C481.20225356 212.41311495 478.05908593 213.50498864 474 213 C472.375 211.34765625 472.375 211.34765625 471 209.0625 C470.319375 207.96615234 470.319375 207.96615234 469.625 206.84765625 C468.29413708 204.51544694 466.99093286 202.17209434 465.6953125 199.8203125 C462.39000025 193.84661053 458.83105371 188.03013627 455.28515625 182.19726562 C448 170.1444818 448 170.1444818 448 167 C447.34 167 446.68 167 446 167 C445.46375 165.88625 444.9275 164.7725 444.375 163.625 C442.27201512 159.39649827 439.86492407 155.3999689 437.3671875 151.39453125 C435.99241652 148.98671808 434.9956617 146.58357045 434 144 C432.51681847 141.37072365 430.9310095 138.9024617 429.1875 136.4375 C426.51653579 132.48733837 424.5461743 128.17268846 422.4453125 123.90234375 C420.25497706 119.50391339 417.89654718 115.31493587 415.125 111.25 C412.12191396 106.65704488 409.59150043 101.83402076 407 97 C403.42439892 90.36095291 399.75285403 83.79893032 395.90625 77.3125 C390.96935731 68.73363728 386.37900311 59.96745591 381.8125 51.1875 C381.29236328 50.19041016 380.77222656 49.19332031 380.23632812 48.16601562 C379.24661844 46.26622807 378.259315 44.3651842 377.27490234 42.46264648 C376.24130628 40.46611575 375.19825538 38.47448169 374.15234375 36.484375 C373 34 373 34 372.75 31.0625 C375.38003006 24.61892634 382.32884019 21.3238438 388.16601562 18.04003906 C391.20839763 16.31472658 394.19376214 14.49545803 397.1875 12.6875 C402.03170338 9.77467736 406.880175 6.86982397 411.75 4 C412.69359375 3.443125 413.6371875 2.88625 414.609375 2.3125 C417.57527042 0.68416526 419.59930732 0 423 0 Z M239.125 47.75 C240.26337311 47.74799088 240.26337311 47.74799088 241.42474365 47.74594116 C254.17413227 47.75078655 266.43882439 48.73769565 279 51 C280.37450188 51.22185837 281.7494878 51.44074422 283.125 51.65625 C289.65735481 52.71060058 296.11599022 54.01205541 302.57421875 55.453125 C333.59614216 62.57124518 333.59614216 62.57124518 364.9375 59.40234375 C367.83204328 58.83768853 370.05492602 58.59298847 373 59 C375.08984375 61.38671875 375.08984375 61.38671875 376.9375 64.6875 C377.27177002 65.27112305 377.60604004 65.85474609 377.95043945 66.45605469 C378.99225243 68.29121994 379.99893193 70.14234286 381 72 C381.62390625 73.13566406 382.2478125 74.27132812 382.890625 75.44140625 C384.06942837 77.61194203 385.23653287 79.78888101 386.390625 81.97265625 C388.24137932 85.45405091 390.18200665 88.87814014 392.15234375 92.29296875 C393 94 393 94 393 96 C393.66 96 394.32 96 395 96 C395.53625 97.11375 396.0725 98.2275 396.625 99.375 C398.74135027 103.62276354 401.16050971 107.64492616 403.62890625 111.6953125 C405.23541222 114.39570715 406.59505095 117.19010189 408 120 C409.58014718 122.55600036 411.1727676 125.10198735 412.79296875 127.6328125 C414 130 414 130 414 134 C414.66 134 415.32 134 416 134 C416.36351562 134.67804688 416.72703125 135.35609375 417.1015625 136.0546875 C419.66606782 140.80231018 422.26787299 145.50842135 425.0625 150.125 C427.02966591 153.37938793 428.98309152 156.63865113 430.875 159.9375 C431.48988281 161.00291016 431.48988281 161.00291016 432.1171875 162.08984375 C433 164 433 164 433 167 C433.66 167 434.32 167 435 167 C438 172.625 438 172.625 438 176 C438.66 176 439.32 176 440 176 C441.85070936 179.21950045 443.67738591 182.45202413 445.5 185.6875 C446.28697266 187.05551758 446.28697266 187.05551758 447.08984375 188.45117188 C447.58613281 189.33740234 448.08242188 190.22363281 448.59375 191.13671875 C449.05458984 191.94842529 449.51542969 192.76013184 449.99023438 193.59643555 C451.12207785 196.29058425 451.31149042 198.10610417 451 201 C449.42578125 202.84375 449.42578125 202.84375 447.3125 204.5 C446.58289063 205.09296875 445.85328125 205.6859375 445.1015625 206.296875 C444.40804688 206.85890625 443.71453125 207.4209375 443 208 C440.71892413 210.23038529 438.48595904 212.47804399 436.3125 214.8125 C435 216 435 216 433 216 C432.79375 216.556875 432.5875 217.11375 432.375 217.6875 C430.42316968 220.97012371 428.05769006 222.70673246 425 225 C424.34 225 423.68 225 423 225 C423 225.66 423 226.32 423 227 C413.61995954 234.49724753 413.61995954 234.49724753 407.8125 234.4375 C406.884375 234.293125 405.95625 234.14875 405 234 C404.67 233.01 404.34 232.02 404 231 C403.29875 230.73058594 402.5975 230.46117187 401.875 230.18359375 C397.89824649 228.54642485 395.17467324 225.91495747 392 223.0625 C387.27820782 218.82789528 387.27820782 218.82789528 382.0625 215.24609375 C381.381875 214.83488281 380.70125 214.42367187 380 214 C380 213.34 380 212.68 380 212 C379.29875 211.7525 378.5975 211.505 377.875 211.25 C373.81264881 209.48376035 370.27868857 207.32278128 367.1875 204.125 C364.35771984 201.3760707 361.16930095 199.44733898 357.828125 197.3671875 C357.22484375 196.91601562 356.6215625 196.46484375 356 196 C356 195.34 356 194.68 356 194 C354.948125 193.6596875 354.948125 193.6596875 353.875 193.3125 C350.99280782 191.99671661 348.96474233 190.35977453 346.59375 188.28515625 C344.50044017 186.59716866 342.18831963 185.37121884 339.8359375 184.08203125 C337.14427722 182.49566977 334.71933373 180.60976166 332.2421875 178.7109375 C325.97907718 173.93176969 319.60240891 169.29924301 313 165 C307 161 307 161 304.796875 159.51953125 C300.1984349 156.43146896 300.1984349 156.43146896 295.5 153.5 C293.15057913 152.09034748 290.89542835 150.59523025 288.625 149.0625 C282.95600868 145.26436983 277.13861432 141.99444601 271 139 C271 138.34 271 137.68 271 137 C270.01 136.773125 269.02 136.54625 268 136.3125 C263.45939757 135.01128527 259.91243718 132.57978554 256 130 C249.52172263 125.9072663 242.87055529 122.37685304 235.99609375 118.99609375 C230.52496782 116.2876845 225.14092332 113.41231798 219.74829102 110.55175781 C218.23238688 109.74888947 216.71380327 108.95105668 215.19238281 108.15869141 C213.73568719 107.38881641 212.29181829 106.59414621 210.86230469 105.77490234 C207.59878751 103.96966776 205.70074624 102.96899353 201.91015625 103.13671875 C200.94980469 103.42160156 199.98945313 103.70648438 199 104 C197.94683594 104.27457031 196.89367187 104.54914063 195.80859375 104.83203125 C193.44725494 105.51881693 191.08943731 106.21777201 188.734375 106.92578125 C185 108 185 108 181.515625 108.73046875 C173.18538285 110.65659282 169.81604026 113.77593961 165.109375 120.8359375 C159.78679677 128.81980485 152.65748775 136.20426931 145 142 C144.34 142 143.68 142 143 142 C143 142.66 143 143.32 143 144 C141.03441766 145.44832383 139.07460925 146.72107421 137 148 C136.29617187 148.46792969 135.59234375 148.93585938 134.8671875 149.41796875 C124.65517384 155.97320524 114.96271195 159.42859093 102.875 159.5 C102.05717041 159.50628418 101.23934082 159.51256836 100.39672852 159.51904297 C97.05695939 159.4473248 94.55158286 159.24543299 91.48046875 157.87890625 C88.62677251 154.25719678 89.41814179 150.02853041 89.5625 145.62109375 C90.21565883 140.21503806 92.08937919 136.53813732 95 132 C95.68964844 130.88625 96.37929687 129.7725 97.08984375 128.625 C101.49498345 121.58976931 106.18327606 114.75913242 111 108 C112.14799182 106.37652416 113.29378995 104.75149511 114.4375 103.125 C115.00726563 102.31546875 115.57703125 101.5059375 116.1640625 100.671875 C118.96416592 96.59683088 121.63250345 92.43574118 124.30078125 88.2734375 C124.86152344 87.52320313 125.42226562 86.77296875 126 86 C126.66 86 127.32 86 128 86 C128.11859375 85.40525879 128.2371875 84.81051758 128.359375 84.19775391 C129.37529693 80.71249125 131.75970141 78.16292714 134 75.375 C137.29809838 71.38454204 137.29809838 71.38454204 140 67 C140.66 67 141.32 67 142 67 C142.25716797 66.39341553 142.51433594 65.78683105 142.77929688 65.16186523 C145.53703188 60.27791654 151.25899287 58.02804117 156.46875 56.55859375 C158.14110361 56.16426896 159.81870259 55.79175647 161.5 55.4375 C162.42635254 55.23479492 163.35270508 55.03208984 164.30712891 54.82324219 C188.86242785 49.73789588 214.08263443 47.77655204 239.125 47.75 Z M51 60 C55.35545581 61.64204453 59.39383057 63.70616162 63.48852539 65.90527344 C76.81189142 72.96166722 90.69685625 75.30205221 105.45922852 77.60644531 C106.40854248 77.75952148 107.35785645 77.91259766 108.3359375 78.0703125 C109.18720215 78.20195801 110.0384668 78.33360352 110.91552734 78.46923828 C113 79 113 79 115 81 C114.6332264 84.07434449 113.42808587 86.11129155 111.62890625 88.58203125 C111.14212402 89.25878906 110.6553418 89.93554688 110.15380859 90.6328125 C109.62867676 91.35210937 109.10354492 92.07140625 108.5625 92.8125 C107.46083231 94.34925255 106.36059517 95.88703153 105.26171875 97.42578125 C104.43486572 98.58134521 104.43486572 98.58134521 103.59130859 99.76025391 C83.73839975 126.31976972 83.73839975 126.31976972 79 158 C80.07399492 160.48274151 81.20960125 161.92985144 83 164 C83 164.66 83 165.32 83 166 C83.721875 166.28875 84.44375 166.5775 85.1875 166.875 C86.88526277 167.55410511 88.5706795 168.26731829 90.2265625 169.04296875 C104.84539178 174.08749435 122.81923232 167.35501299 136 161 C136.66 161 137.32 161 138 161 C138 160.34 138 159.68 138 159 C139.7015625 158.2265625 139.7015625 158.2265625 141.4375 157.4375 C150.75335438 152.77957281 157.88941654 145.56473331 164.52734375 137.6875 C165.8018938 136.22700763 167.17500589 134.85365279 168.5625 133.5 C170.57126791 131.43972522 172.07500618 129.54023222 173.6875 127.1875 C174.450625 126.135625 175.21375 125.08375 176 124 C176.66 124 177.32 124 178 124 C178.33 123.01 178.66 122.02 179 121 C180.6796875 120.19140625 180.6796875 120.19140625 182.875 119.5625 C186.55314601 118.45964282 190.1078616 117.20322135 193.6875 115.8125 C200.82592722 113.24107768 200.82592722 113.24107768 205 114 C206.61276054 114.90691044 208.22274 115.81911933 209.81835938 116.75585938 C213.2986481 118.74058983 216.87450997 120.53562436 220.43847656 122.36450195 C237.71117706 131.22979621 254.52986792 140.72337163 271 151 C272.85119435 152.12988429 274.70517522 153.25522158 276.5625 154.375 C277.32691406 154.83648437 278.09132813 155.29796875 278.87890625 155.7734375 C280.88531279 156.93367996 282.91533546 157.98839408 285 159 C285 159.66 285 160.32 285 161 C285.804375 161.20625 286.60875 161.4125 287.4375 161.625 C292.05469793 163.40707639 296.16242583 165.86171712 300 169 C300 169.66 300 170.32 300 171 C300.763125 171.103125 301.52625 171.20625 302.3125 171.3125 C305.29903817 172.07649814 305.96692248 172.79749935 308 175 C309.65819607 176.01398401 311.32647088 177.01152742 313 178 C324.39082339 185.35997328 335.2356182 193.40938354 346.06811523 201.55517578 C355.89975854 208.96573701 355.89975854 208.96573701 366 216 C366 216.66 366 217.32 366 218 C366.763125 218.28875 367.52625 218.5775 368.3125 218.875 C371 220 371 220 374 222 C374 222.66 374 223.32 374 224 C374.83724609 224.12955078 374.83724609 224.12955078 375.69140625 224.26171875 C378.68792262 225.21999556 380.52171096 226.80616673 382.9375 228.8125 C383.77152344 229.49957031 384.60554688 230.18664062 385.46484375 230.89453125 C386.30144531 231.58933594 387.13804687 232.28414062 388 233 C388.84046875 233.67160156 389.6809375 234.34320313 390.546875 235.03515625 C392.83269883 236.86599923 395.08659716 238.72187403 397.3125 240.625 C398.35857422 241.51058594 398.35857422 241.51058594 399.42578125 242.4140625 C401 244 401 244 401 246 C401.86625 246.3403125 401.86625 246.3403125 402.75 246.6875 C407.06153425 249.20256164 409.06466694 252.44740933 410.3125 257.1875 C411.52103921 263.59382733 411.34477686 271.23955096 408 277 C407.01 277.33 406.02 277.66 405 278 C404.84402344 278.63421875 404.68804687 279.2684375 404.52734375 279.921875 C404 282 404 282 402.56640625 283.265625 C394.80458701 287.07844849 385.44077952 287.65250633 377 286 C372.12903331 284.14607201 368.15176024 281.10446937 364 278 C362.68551307 277.29690234 361.35929175 276.6120034 360 276 C360 275.34 360 274.68 360 274 C359.15066895 273.82778931 359.15066895 273.82778931 358.28417969 273.65209961 C353.9270909 272.40821503 350.14677692 269.82746561 346.25 267.5625 C345.36183594 267.05912109 344.47367187 266.55574219 343.55859375 266.03710938 C342.71941406 265.55177734 341.88023437 265.06644531 341.015625 264.56640625 C340.24508789 264.12240479 339.47455078 263.67840332 338.68066406 263.22094727 C338.12604492 262.81803467 337.57142578 262.41512207 337 262 C337 261.34 337 260.68 337 260 C336.319375 259.938125 335.63875 259.87625 334.9375 259.8125 C331.73905733 258.92782437 329.69867879 257.43427921 327.07421875 255.453125 C323.82855346 253.17932558 320.33209861 251.40646277 316.83984375 249.54296875 C313.25160775 247.59337697 309.76813078 245.49263384 306.27734375 243.375 C302.63648923 241.17674821 298.93816811 239.08434956 295.2265625 237.0078125 C292.46890154 235.4543703 289.85418452 233.89148616 287.3125 232 C282.51263848 229.1019704 277.34323255 227.62544939 272 226 C271.24586647 229.24356576 271.24586647 229.24356576 272 233 C274.21490411 234.91267548 276.48367737 236.30330593 279.03125 237.73828125 C279.6809375 238.15464844 280.330625 238.57101563 281 239 C281 239.66 281 240.32 281 241 C281.804375 241.20625 282.60875 241.4125 283.4375 241.625 C287.2863618 243.11052561 290.22763007 245.04468343 293.60546875 247.375 C296.67436229 249.45764227 299.84780424 251.32726986 303.0390625 253.21484375 C305.40542402 254.64152873 307.74901852 256.0925722 310.0859375 257.56640625 C310.80322021 258.01854492 311.52050293 258.47068359 312.25952148 258.93652344 C313.69296901 259.84212934 315.12482036 260.75026752 316.55493164 261.66113281 C317.21614014 262.0784668 317.87734863 262.49580078 318.55859375 262.92578125 C319.14954834 263.30130127 319.74050293 263.67682129 320.34936523 264.0637207 C322.15838178 265.16001688 322.15838178 265.16001688 325 266 C325 266.66 325 267.32 325 268 C325.56203125 268.11214844 326.1240625 268.22429687 326.703125 268.33984375 C329.31513108 269.09057339 331.39471322 270.21167376 333.75 271.5625 C334.54921875 272.01753906 335.3484375 272.47257813 336.171875 272.94140625 C336.77515625 273.29074219 337.3784375 273.64007813 338 274 C338 274.66 338 275.32 338 276 C338.72574219 276.09667969 339.45148438 276.19335938 340.19921875 276.29296875 C343.39305432 277.09922292 345.19262525 278.33595475 347.8125 280.3125 C352.06052317 283.40776126 356.23575955 285.79433313 361 288 C361 288.66 361 289.32 361 290 C361.639375 290.144375 362.27875 290.28875 362.9375 290.4375 C365 291 365 291 366 292 C366.15419373 294.76362609 366.23171918 297.48502556 366.25 300.25 C366.270625 301.01441406 366.29125 301.77882813 366.3125 302.56640625 C366.34494411 307.26269169 365.9213937 310.12628924 363 314 C362.4225 314.845625 361.845 315.69125 361.25 316.5625 C355.86903257 322.39188139 349.4709434 324.14054147 341.75 324.5625 C332.53009016 324.51452961 325.82844245 320.49230568 318 316 C315.91824745 314.87207753 313.83511833 313.74668816 311.75 312.625 C310.91984375 312.16351563 310.0896875 311.70203125 309.234375 311.2265625 C307.17896661 310.09824391 305.10462179 309.03300244 303 308 C303 307.34 303 306.68 303 306 C302.0925 305.731875 301.185 305.46375 300.25 305.1875 C297.22529089 304.08231782 295.50164226 302.9367553 293 301 C291.95005859 300.59587891 291.95005859 300.59587891 290.87890625 300.18359375 C287.06673988 298.61631232 283.57529892 296.60411442 280 294.5625 C279.30132812 294.16740234 278.60265625 293.77230469 277.8828125 293.36523438 C274.22490436 291.29126948 270.60363189 289.16713258 267 287 C264.76554093 285.74064939 262.51953528 284.50478299 260.26953125 283.2734375 C258.85216207 282.47814946 257.4500661 281.65419978 256.07421875 280.7890625 C252.20455698 278.36945137 249.55843156 277.55527497 245 278 C244.67 279.98 244.34 281.96 244 284 C244.59167969 284.38671875 245.18335938 284.7734375 245.79296875 285.171875 C249.21988755 287.43039897 252.57089873 289.64891714 255.75 292.25 C257.88519605 294.08205348 257.88519605 294.08205348 260.3203125 294.90625 C263.19137225 296.07811112 265.54187935 297.53820065 268.125 299.25 C273.605616 302.80061413 279.24172293 305.92777468 285 309 C294.32391291 314.0744501 303.36359232 319.5814184 312.375 325.1875 C313.06537354 325.61571045 313.75574707 326.0439209 314.46704102 326.48510742 C316.32067847 327.64286482 318.16270267 328.81653267 320 330 C320.79664063 330.51046875 321.59328125 331.0209375 322.4140625 331.546875 C324.9798591 333.89780194 324.93658695 336.11285088 325.16015625 339.4609375 C324.7801673 345.48515253 322.28513059 350.97121847 318.25 355.4375 C312.09514989 360.82872107 305.45191098 361.54551888 297.45703125 361.359375 C289.60271167 360.54288076 282.71138174 358.06161365 276 354 C274.32013527 353.26417478 272.63915379 352.53040186 270.94580078 351.82617188 C267.22517977 350.24642514 263.58786479 348.48448895 259.9375 346.75 C259.10404053 346.35522461 258.27058105 345.96044922 257.41186523 345.55371094 C252.42727264 343.18360244 247.48365184 340.74893679 242.5625 338.25 C230.74797158 332.24346343 230.74797158 332.24346343 218 329 C217.67 331.31 217.34 333.62 217 336 C221.87220025 339.70669352 226.52884077 342.32965654 232.1875 344.625 C236.47159649 346.38136089 240.36532158 348.07735426 244 351 C245.69197266 351.74837252 247.3859459 352.49325794 249.09765625 353.1953125 C252.48134059 354.62660403 255.72536651 356.3377495 259 358 C261.04112854 359.02190889 263.08282872 360.04267652 265.125 361.0625 C267.08333333 362.04166667 269.04166667 363.02083333 271 364 C272.06992187 364.51433594 273.13984375 365.02867187 274.2421875 365.55859375 C277 367 277 367 279 369 C279 373.56371764 276.52896525 376.21509307 273.609375 379.43359375 C271.5852476 381.40367891 269.49702661 382.68906103 267 384 C266.071875 384.680625 265.14375 385.36125 264.1875 386.0625 C257.54107117 390.10248615 250.58297804 390.36012561 243 390.3125 C242.07936768 390.30831055 241.15873535 390.30412109 240.21020508 390.29980469 C231.83876764 390.16334147 224.13950211 388.94819726 216 387 C215.3100293 386.83951172 214.62005859 386.67902344 213.90917969 386.51367188 C192.00744903 381.40627241 192.00744903 381.40627241 187 376 C187.74056641 374.69675781 187.74056641 374.69675781 188.49609375 373.3671875 C189.13675781 372.21476562 189.77742187 371.06234375 190.4375 369.875 C191.07558594 368.73804688 191.71367187 367.60109375 192.37109375 366.4296875 C196.04418345 358.69593987 196.24904428 349.12393507 193.625 341 C192.63801657 338.28828796 191.63225864 336.44838796 190 334 C190 333.01 190 332.02 190 331 C189.34 331 188.68 331 188 331 C187.34 330.13375 186.68 329.2675 186 328.375 C179.81314106 320.77144002 171.00417677 318.10763175 161.80859375 315.76171875 C159 315 159 315 158 314 C157.67422668 311.81731875 157.38986047 309.62840726 157.125 307.4375 C155.86794412 298.44681775 153.96719034 292.69958528 148.20703125 285.6640625 C147 284 147 284 147 282 C145.35 281.34 143.7 280.68 142 280 C142 279.34 142 278.68 142 278 C141.43925781 277.87625 140.87851563 277.7525 140.30078125 277.625 C137.81218099 276.94897956 135.55724073 276.01507005 133.1875 275 C130.07226905 273.71888432 127.28735773 272.74874446 123.9375 272.375 C122.968125 272.25125 121.99875 272.1275 121 272 C119.50784363 269.01568726 119.76264862 266.13245366 119.625 262.8125 C119.13859298 254.14607569 116.76889813 248.87719513 111.98828125 241.69921875 C111 240 111 240 111 238 C110.0409375 237.814375 110.0409375 237.814375 109.0625 237.625 C108.381875 237.41875 107.70125 237.2125 107 237 C106.67 236.34 106.34 235.68 106 235 C99.93011953 230.05417147 93.33578525 229.49380276 85.8125 229.4375 C84.5299231 229.41598877 84.5299231 229.41598877 83.22143555 229.39404297 C77.30490681 229.48710809 73.93817979 230.77833407 69 234 C68.34 234 67.68 234 67 234 C66.34 235.32 65.68 236.64 65 238 C64.34 238 63.68 238 63 238 C62.34 239.65 61.68 241.3 61 243 C60.34 243 59.68 243 59 243 C58.34 244.65 57.68 246.3 57 248 C55.68 248 54.36 248 53 248 C51.27735506 244.70450534 49.70554068 241.66881155 49 238 C48.34 238 47.68 238 47 238 C45.889318 236.79260954 44.83534451 235.53265169 43.8125 234.25 C38.29862271 227.81524836 32.35548725 225.16250257 24 224 C17.4396643 223.57675254 11.42041517 224.67814982 5 226 C5 226.66 5 227.32 5 228 C1.7 229.65 -1.6 231.3 -5 233 C-9.8 229.55384615 -9.8 229.55384615 -10.8125 226.75 C-10.874375 226.1725 -10.93625 225.595 -11 225 C-11.66 225 -12.32 225 -13 225 C-13.2475 224.4225 -13.495 223.845 -13.75 223.25 C-14.93990475 220.86550111 -14.93990475 220.86550111 -17.125 218.875 C-18.053125 217.946875 -18.053125 217.946875 -19 217 C-19 216.34 -19 215.68 -19 215 C-19.99 214.67 -20.98 214.34 -22 214 C-23.28125 212.4765625 -23.28125 212.4765625 -24.5 210.625 C-25.79416895 208.67545062 -26.9497219 207.04743217 -28.65625 205.4375 C-30 204 -30 204 -30 201.375 C-28.65782205 196.84514941 -26.42797825 193.0316982 -24 189 C-23.34 189 -22.68 189 -22 189 C-21.87367187 188.42121094 -21.74734375 187.84242188 -21.6171875 187.24609375 C-20.99968722 184.99886172 -20.18358127 183.13452922 -19.125 181.0625 C-18.79757813 180.41410156 -18.47015625 179.76570313 -18.1328125 179.09765625 C-17.3177315 177.5883511 -16.45924384 176.10219661 -15.57421875 174.6328125 C-13.8447294 171.74031666 -12.26529041 168.79035271 -10.6875 165.8125 C-8.08164952 160.94569101 -5.35454843 156.19380653 -2.4765625 151.484375 C-0.32802162 147.86936971 1.63889799 144.161752 3.60546875 140.4453125 C5 138 5 138 6.59375 135.87890625 C8.2090602 133.72067235 9.05245603 131.45177476 10.0625 128.96875 C11.12173865 126.74434884 12.40577177 124.83467183 13.8125 122.8125 C16.85373586 118.39707609 19.16465285 113.77864065 21.5078125 108.96484375 C23.2904006 105.42299985 25.29574289 102.06970465 27.3671875 98.69140625 C29.29664872 95.51102639 31.15549233 92.2925656 33 89.0625 C33.51191895 88.1660376 33.51191895 88.1660376 34.03417969 87.25146484 C36.10702844 83.60662313 38.13184043 79.93891052 40.125 76.25 C48.18482688 61.40758656 48.18482688 61.40758656 51 60 Z M32.11328125 237.6328125 C37.178444 241.30322029 41.12441548 246.00514107 43 252 C43.81146825 258.53075892 44.45803358 265.01806281 40.25 270.4375 C39.70214844 271.035625 39.15429688 271.63375 38.58984375 272.25 C36.95346027 274.051228 35.92839088 275.78387403 34.8125 277.9375 C33 281 33 281 30 282 C29.65750196 283.33100863 29.325271 284.66467694 29 286 C27.51171875 287.6328125 27.51171875 287.6328125 25.6875 289.125 C25.09324219 289.62257813 24.49898437 290.12015625 23.88671875 290.6328125 C18.97673558 294.19077132 14.95785485 294.74592725 9 294 C0.62439455 291.7907418 -3.85011112 286.49878246 -8.66015625 279.62890625 C-11.19983259 274.64580952 -10.77054704 269.43081555 -10 264 C-6.30351321 254.13073915 -6.30351321 254.13073915 -1.859375 251.94921875 C-1.24578125 251.63597656 -0.6321875 251.32273438 0 251 C0.34023009 249.66840983 0.67217911 248.33469935 1 247 C3.109375 244.2734375 3.109375 244.2734375 5.75 241.375 C6.61109375 240.41335937 7.4721875 239.45171875 8.359375 238.4609375 C15.24772091 232.04132518 24.26543068 233.27112679 32.11328125 237.6328125 Z M93.10546875 240.53125 C100.90711915 243.70013228 104.55301343 248.61718149 108 256 C109.95562445 261.15573718 110.48748006 264.66257155 109 270 C106.91051853 274.15806812 104.69870859 278.20435674 102 282 C101.34 282 100.68 282 100 282 C99.92523438 282.53496094 99.85046875 283.06992187 99.7734375 283.62109375 C98.68697632 286.96278494 96.75597697 289.27981648 94.625 292.0625 C93.83351563 293.10535156 93.04203125 294.14820313 92.2265625 295.22265625 C90 298 90 298 88.328125 299.6640625 C86.45217452 301.55104799 85.38774331 303.83754094 84.109375 306.1484375 C82.3531921 309.07953149 80.3235948 311.49296351 78 314 C77.34 314 76.68 314 76 314 C75.89300781 314.57878906 75.78601563 315.15757812 75.67578125 315.75390625 C74.90695022 318.30926949 73.82712822 319.84126646 72.1875 321.9375 C71.64996094 322.62714844 71.11242187 323.31679688 70.55859375 324.02734375 C70.04425781 324.67832031 69.52992188 325.32929688 69 326 C68.2575 326.99 67.515 327.98 66.75 329 C65.88375 329.99 65.88375 329.99 65 331 C64.34 331 63.68 331 63 331 C63 331.99 63 332.98 63 334 C56.73399176 337.45148917 52.01235622 338.92153533 45 337 C38.64749336 334.83595928 34.97331434 331.28947471 31 326 C30.1028125 324.948125 30.1028125 324.948125 29.1875 323.875 C26.51571643 319.65639436 26.74455032 314.85354396 27 310 C28 306.5625 28 306.5625 29 304 C29.66 304 30.32 304 31 304 C31.0721875 303.4740625 31.144375 302.948125 31.21875 302.40625 C32.32765825 298.99081259 34.39094625 296.35822479 36.5 293.5 C36.9441626 292.88777588 37.3883252 292.27555176 37.84594727 291.64477539 C41.52801883 286.58755881 45.29144284 281.59141509 49.08984375 276.62109375 C51.02749074 274.05053435 51.02749074 274.05053435 52.56640625 271.34765625 C53.89254438 269.17596956 55.20482338 267.76719984 57 266 C58.59162915 263.65508072 60.09259522 261.26448549 61.59765625 258.86328125 C62.06042969 258.24839844 62.52320313 257.63351562 63 257 C63.66 257 64.32 257 65 257 C65 256.34 65 255.68 65 255 C65.66 255 66.32 255 67 255 C67.33 253.68 67.66 252.36 68 251 C68.66 251 69.32 251 70 251 C70.20625 250.278125 70.4125 249.55625 70.625 248.8125 C74.97254037 239.91980379 84.07768465 238.25336756 93.10546875 240.53125 Z M135.8828125 287.9609375 C141.98389071 291.68497225 144.50117514 297.42463989 146.66796875 304.0390625 C147.93137646 310.11843028 145.58382366 315.54718151 143 321 C141.125 323.625 141.125 323.625 139 326 C137.42448555 328.38357469 135.88963522 330.78925806 134.3671875 333.20703125 C133.91601562 333.79871094 133.46484375 334.39039063 133 335 C132.34 335 131.68 335 131 335 C130.71125 335.763125 130.4225 336.52625 130.125 337.3125 C129 340 129 340 127 343 C126.34 343 125.68 343 125 343 C124.731875 343.721875 124.46375 344.44375 124.1875 345.1875 C123.00098638 347.99766383 121.72514361 350.48416557 120 353 C119.34 353 118.68 353 118 353 C117.73703125 353.56589844 117.4740625 354.13179688 117.203125 354.71484375 C114.48695019 359.87381214 110.91912221 364.56065834 106.25 368.0625 C99.97500759 369.87259396 93.63435112 370.11231132 87.625 367.3125 C84.22833128 365.34858249 81.53720908 363.01293579 79 360 C79 359.34 79 358.68 79 358 C78.01 357.67 77.02 357.34 76 357 C73.57450111 351.00008169 72.74671965 344.07135003 74.67578125 337.8046875 C75.37460694 336.16857427 76.1770453 334.57732984 77 333 C77.66 333 78.32 333 79 333 C79.23589844 332.13890625 79.47179687 331.2778125 79.71484375 330.390625 C81.15923861 326.57988112 83.0555477 323.95310439 85.5625 320.75 C88.548486 317.04434278 88.548486 317.04434278 91 313 C91.66 313 92.32 313 93 313 C93.66 311.35 94.32 309.7 95 308 C95.66 308 96.32 308 97 308 C97.226875 307.29875 97.45375 306.5975 97.6875 305.875 C99.31686529 302.30591412 101.43177069 299.96334151 104 297 C104.33 296.34 104.66 295.68 105 295 C105.66 295 106.32 295 107 295 C107.2475 294.443125 107.495 293.88625 107.75 293.3125 C109.70479447 289.69613023 111.65211318 286.78626731 115.25 284.6875 C123.07182022 282.73204494 128.92830634 284.41154224 135.8828125 287.9609375 Z M168 328 C171.08718359 329.21426234 173.6713351 330.61348007 176 333 C176 333.66 176 334.32 176 335 C176.66 335 177.32 335 178 335 C182.97454755 340.38909318 185.55657567 346.5386928 185.3046875 353.94140625 C184.25122175 361.05905303 179.07695574 366.8492915 174.8984375 372.43359375 C173.38369174 374.48130561 171.97937881 376.53373219 170.625 378.6875 C170.08875 379.450625 169.5525 380.21375 169 381 C168.34 381 167.68 381 167 381 C167 381.99 167 382.98 167 384 C165.3777546 385.70993434 163.70586575 387.37347684 162 389 C161.443125 389.763125 160.88625 390.52625 160.3125 391.3125 C159.879375 391.869375 159.44625 392.42625 159 393 C158.34 393 157.68 393 157 393 C157 393.66 157 394.32 157 395 C152.19046345 397.56508616 147.30786023 397.65639188 142 397 C135.30961905 394.81707147 129.3081541 390.51085527 125.6875 384.4375 C123.31594635 379.60655738 123.31594635 379.60655738 123 377 C122.855625 375.824375 122.71125 374.64875 122.5625 373.4375 C122.60895397 367.25912241 126.29487552 360.75922697 130.5625 356.40625 C131.036875 355.9421875 131.51125 355.478125 132 355 C132.77062024 353.79638912 133.50148077 352.56625928 134.1875 351.3125 C134.785625 350.219375 135.38375 349.12625 136 348 C136.66 348 137.32 348 138 348 C138.11859375 347.41089844 138.2371875 346.82179688 138.359375 346.21484375 C140.00605755 340.52174005 144.75997118 335.92202666 149 332 C149.73605469 331.30390625 150.47210938 330.6078125 151.23046875 329.890625 C156.29611542 326.43255308 162.11195791 327.21183689 168 328 Z " fill="#060606" transform="translate(102,1)"/>
</svg>
