<?xml version="1.0" encoding="UTF-8"?>
<svg version="1.1" xmlns="http://www.w3.org/2000/svg" width="500" height="500">
<path d="M0 0 C1.7388868 1.27772932 3.51705972 2.50225856 5.3125 3.69921875 C5.3125 4.35921875 5.3125 5.01921875 5.3125 5.69921875 C5.87453125 5.95703125 6.4365625 6.21484375 7.015625 6.48046875 C9.57954579 7.84091652 11.76476365 9.42710837 14.0625 11.19921875 C14.86171875 11.80765625 15.6609375 12.41609375 16.484375 13.04296875 C17.08765625 13.58953125 17.6909375 14.13609375 18.3125 14.69921875 C18.3125 15.35921875 18.3125 16.01921875 18.3125 16.69921875 C18.9725 16.69921875 19.6325 16.69921875 20.3125 16.69921875 C20.3125 17.35921875 20.3125 18.01921875 20.3125 18.69921875 C20.869375 18.92609375 21.42625 19.15296875 22 19.38671875 C24.97409588 21.07471911 27.03258865 23.16598392 29.3125 25.69921875 C29.3125 26.35921875 29.3125 27.01921875 29.3125 27.69921875 C29.9725 27.69921875 30.6325 27.69921875 31.3125 27.69921875 C31.3125 28.35921875 31.3125 29.01921875 31.3125 29.69921875 C31.9725 29.69921875 32.6325 29.69921875 33.3125 29.69921875 C34.91884015 31.43313826 36.4500287 33.23730975 37.9375 35.07421875 C38.75476563 36.07195312 39.57203125 37.0696875 40.4140625 38.09765625 C42.3125 40.69921875 42.3125 40.69921875 42.3125 42.69921875 C42.9725 42.69921875 43.6325 42.69921875 44.3125 42.69921875 C46.04519068 44.89554536 47.66024462 47.09040543 49.25 49.38671875 C49.69279297 50.01255859 50.13558594 50.63839844 50.59179688 51.28320312 C57.3125 60.84843634 57.3125 60.84843634 57.3125 63.69921875 C57.9725 63.69921875 58.6325 63.69921875 59.3125 63.69921875 C60.72061885 66.27303306 62.12595819 68.84829197 63.52734375 71.42578125 C64.71984376 73.61246617 65.92041295 75.7947694 67.12890625 77.97265625 C70.15858116 83.48234583 73.00960748 88.91979444 75.22265625 94.80859375 C76.09017439 97.10953792 76.99658968 99.37958773 77.93359375 101.65234375 C82.0679752 111.78991922 85.24382009 121.93197585 87.80126953 132.57470703 C88.25797268 134.4726205 88.7350418 136.36560654 89.21484375 138.2578125 C91.20210475 146.3353858 92.39239671 154.43598347 93.3125 162.69921875 C93.4259375 163.67632812 93.539375 164.6534375 93.65625 165.66015625 C97.41485724 204.60350346 92.45700759 248.93220419 74.18334961 283.98779297 C73.07659421 286.1628295 72.16347355 288.41130344 71.21875 290.66015625 C67.70701231 298.56156605 63.59600343 306.19361098 59.3125 313.69921875 C58.6525 313.69921875 57.9925 313.69921875 57.3125 313.69921875 C57.08691406 314.55 56.86132812 315.40078125 56.62890625 316.27734375 C55.07709104 320.31114233 52.95177305 323.12454753 50.25 326.44921875 C46.98326092 330.37655929 46.98326092 330.37655929 44.3125 334.69921875 C43.6525 334.69921875 42.9925 334.69921875 42.3125 334.69921875 C42.0753125 335.240625 41.838125 335.78203125 41.59375 336.33984375 C39.96902243 339.33172012 37.9623123 341.81081274 35.8125 344.44921875 C35.0184375 345.4340625 34.224375 346.41890625 33.40625 347.43359375 C32.7153125 348.18125 32.024375 348.92890625 31.3125 349.69921875 C30.6525 349.69921875 29.9925 349.69921875 29.3125 349.69921875 C29.3125 350.35921875 29.3125 351.01921875 29.3125 351.69921875 C28.6525 351.69921875 27.9925 351.69921875 27.3125 351.69921875 C27.044375 352.33859375 26.77625 352.97796875 26.5 353.63671875 C25.3125 355.69921875 25.3125 355.69921875 22.3125 356.69921875 C22.3125 357.35921875 22.3125 358.01921875 22.3125 358.69921875 C21.6525 358.69921875 20.9925 358.69921875 20.3125 358.69921875 C20.3125 359.35921875 20.3125 360.01921875 20.3125 360.69921875 C18.73828125 362.28515625 18.73828125 362.28515625 16.625 364.07421875 C15.89667969 364.69167969 15.16835938 365.30914062 14.41796875 365.9453125 C13.72316406 366.52410156 13.02835937 367.10289062 12.3125 367.69921875 C11.36375 368.50359375 10.415 369.30796875 9.4375 370.13671875 C7.3125 371.69921875 7.3125 371.69921875 5.3125 371.69921875 C5.3125 372.35921875 5.3125 373.01921875 5.3125 373.69921875 C3.11617339 375.43190943 0.92131332 377.04696337 -1.375 378.63671875 C-2.00083984 379.07951172 -2.62667969 379.52230469 -3.27148438 379.97851562 C-12.83671759 386.69921875 -12.83671759 386.69921875 -15.6875 386.69921875 C-15.6875 387.35921875 -15.6875 388.01921875 -15.6875 388.69921875 C-18.26131431 390.1073376 -20.83657322 391.51267694 -23.4140625 392.9140625 C-25.60074742 394.10656251 -27.78305065 395.3071317 -29.9609375 396.515625 C-35.60324107 399.61822185 -41.17074377 402.47700269 -47.19921875 404.74609375 C-49.86465271 405.7670763 -52.45196685 406.92047263 -55.0625 408.07421875 C-95.05206276 424.73653657 -141.23585671 427.8923745 -183.57080078 420.08007812 C-185.44726161 419.74244503 -187.330759 419.44444991 -189.21484375 419.15234375 C-213.54258234 415.02805359 -237.19886942 404.94744683 -258.4296875 392.58203125 C-260.82443148 391.19801854 -263.19411151 389.88952984 -265.6875 388.69921875 C-265.6875 388.03921875 -265.6875 387.37921875 -265.6875 386.69921875 C-266.51765625 386.48523438 -267.3478125 386.27125 -268.203125 386.05078125 C-272.55977454 384.36087011 -275.77264984 381.92729056 -279.4375 379.07421875 C-280.13617188 378.53877441 -280.83484375 378.00333008 -281.5546875 377.45166016 C-283.60523434 375.87544415 -285.64651775 374.28778668 -287.6875 372.69921875 C-288.77567477 371.86540638 -289.86417855 371.03202308 -290.953125 370.19921875 C-296.02603007 366.25684681 -296.02603007 366.25684681 -297.6875 364.69921875 C-297.6875 364.03921875 -297.6875 363.37921875 -297.6875 362.69921875 C-299.0075 362.03921875 -300.3275 361.37921875 -301.6875 360.69921875 C-301.6875 360.03921875 -301.6875 359.37921875 -301.6875 358.69921875 C-302.5846875 358.29703125 -302.5846875 358.29703125 -303.5 357.88671875 C-305.68597854 356.70004469 -307.10082594 355.60322762 -308.6875 353.69921875 C-308.6875 353.03921875 -308.6875 352.37921875 -308.6875 351.69921875 C-309.3475 351.69921875 -310.0075 351.69921875 -310.6875 351.69921875 C-310.6875 351.03921875 -310.6875 350.37921875 -310.6875 349.69921875 C-311.3475 349.69921875 -312.0075 349.69921875 -312.6875 349.69921875 C-314.2734375 348.125 -314.2734375 348.125 -316.0625 346.01171875 C-316.67996094 345.28339844 -317.29742187 344.55507813 -317.93359375 343.8046875 C-318.51238281 343.10988281 -319.09117187 342.41507812 -319.6875 341.69921875 C-320.491875 340.75046875 -321.29625 339.80171875 -322.125 338.82421875 C-323.6875 336.69921875 -323.6875 336.69921875 -323.6875 334.69921875 C-324.3475 334.69921875 -325.0075 334.69921875 -325.6875 334.69921875 C-327.32179751 332.60472195 -328.82917234 330.52139784 -330.3125 328.32421875 C-330.94285156 327.41929687 -330.94285156 327.41929687 -331.5859375 326.49609375 C-334.6875 321.9645901 -334.6875 321.9645901 -334.6875 319.69921875 C-335.3475 319.69921875 -336.0075 319.69921875 -336.6875 319.69921875 C-337.3475 317.71921875 -338.0075 315.73921875 -338.6875 313.69921875 C-339.3475 313.69921875 -340.0075 313.69921875 -340.6875 313.69921875 C-342.09561885 311.12540444 -343.50095819 308.55014553 -344.90234375 305.97265625 C-346.09484376 303.78597133 -347.29541295 301.6036681 -348.50390625 299.42578125 C-351.53358116 293.91609167 -354.38460748 288.47864306 -356.59765625 282.58984375 C-357.46517439 280.28889958 -358.37158968 278.01884977 -359.30859375 275.74609375 C-363.44991742 265.59149586 -366.62253471 255.43654291 -369.18066406 244.77539062 C-369.60951622 243.01866675 -370.07779859 241.27164014 -370.5546875 239.52734375 C-377.50730918 213.00703424 -377.69223457 183.69617066 -373.6875 156.69921875 C-373.48833984 155.11367188 -373.48833984 155.11367188 -373.28515625 153.49609375 C-370.5689384 133.31847543 -365.70092764 111.83985991 -355.828125 93.8671875 C-354.26128352 90.8891155 -353.0084618 87.79357177 -351.6875 84.69921875 C-346.22522524 73.07160416 -339.77021871 62.47850394 -332.32421875 52.00390625 C-331.27015074 50.51965774 -330.22987866 49.02546491 -329.20703125 47.51953125 C-328.0830094 45.87799787 -326.89217758 44.28250928 -325.6875 42.69921875 C-325.0275 42.69921875 -324.3675 42.69921875 -323.6875 42.69921875 C-323.4296875 42.12300781 -323.171875 41.54679687 -322.90625 40.953125 C-321.5826324 38.5052809 -320.0574228 36.69284148 -318.1875 34.63671875 C-316.12934439 32.36489868 -314.39611829 30.26214618 -312.6875 27.69921875 C-312.0275 27.69921875 -311.3675 27.69921875 -310.6875 27.69921875 C-310.6875 27.03921875 -310.6875 26.37921875 -310.6875 25.69921875 C-310.0275 25.69921875 -309.3675 25.69921875 -308.6875 25.69921875 C-308.6875 25.03921875 -308.6875 24.37921875 -308.6875 23.69921875 C-307.3125 22.07421875 -307.3125 22.07421875 -305.6875 20.69921875 C-305.0275 20.69921875 -304.3675 20.69921875 -303.6875 20.69921875 C-303.6875 20.03921875 -303.6875 19.37921875 -303.6875 18.69921875 C-303.0275 18.69921875 -302.3675 18.69921875 -301.6875 18.69921875 C-301.6875 18.03921875 -301.6875 17.37921875 -301.6875 16.69921875 C-301.0275 16.69921875 -300.3675 16.69921875 -299.6875 16.69921875 C-299.6875 16.03921875 -299.6875 15.37921875 -299.6875 14.69921875 C-296.73011674 11.95307715 -293.51458786 9.51716001 -290.34667969 7.01855469 C-288.71853385 5.72389605 -287.11183327 4.4064069 -285.5078125 3.08203125 C-271.66890345 -8.23038343 -256.75801721 -17.27100503 -240.43115234 -24.50292969 C-238.20801762 -25.52018036 -236.08029499 -26.68758843 -233.9375 -27.86328125 C-160.19142818 -64.79828865 -64.22558724 -47.51573242 0 0 Z M-238.6875 32.69921875 C-239.56148438 33.2096875 -240.43546875 33.72015625 -241.3359375 34.24609375 C-243.15919181 35.33364895 -244.93195381 36.50544734 -246.6875 37.69921875 C-246.6875 38.35921875 -246.6875 39.01921875 -246.6875 39.69921875 C-247.739375 40.04533203 -247.739375 40.04533203 -248.8125 40.3984375 C-252.23766114 41.94813676 -254.86630341 44.08076382 -257.6875 46.51171875 C-258.19539063 46.93775391 -258.70328125 47.36378906 -259.2265625 47.80273438 C-262.54754932 50.61705782 -265.63322101 53.60088766 -268.6875 56.69921875 C-269.491875 57.4571875 -270.29625 58.21515625 -271.125 58.99609375 C-298.49463481 85.19751244 -317.70325655 123.14681359 -322.6875 160.69921875 C-322.79046387 161.46379395 -322.89342773 162.22836914 -322.99951172 163.01611328 C-328.1539197 202.61466941 -322.03144977 247.50660389 -299.2890625 281.26953125 C-297.83880228 283.46968213 -296.631504 285.66666054 -295.4375 288.01171875 C-289.17367486 299.47492817 -279.64340821 309.30087795 -270.6875 318.69921875 C-269.95015625 319.48941406 -269.2128125 320.27960938 -268.453125 321.09375 C-264.17481968 325.55161923 -259.62282369 329.4788864 -254.75 333.26171875 C-254.18168457 333.70402832 -253.61336914 334.14633789 -253.02783203 334.60205078 C-250.17631736 336.96755622 -250.17631736 336.96755622 -246.6875 337.69921875 C-246.6875 338.35921875 -246.6875 339.01921875 -246.6875 339.69921875 C-244.45568876 341.25516453 -244.45568876 341.25516453 -241.5625 342.82421875 C-240.46808594 343.44296875 -239.37367188 344.06171875 -238.24609375 344.69921875 C-237.66327637 345.02535156 -237.08045898 345.35148437 -236.47998047 345.6875 C-234.69579263 346.69453819 -232.92666971 347.72403282 -231.16015625 348.76171875 C-190.54521342 372.5483833 -141.27646654 378.66334606 -95.65820312 367.38500977 C-78.5577139 362.85287864 -61.62589996 356.19613969 -46.6875 346.69921875 C-45.91664063 346.26351563 -45.14578125 345.8278125 -44.3515625 345.37890625 C-31.82349723 338.28372365 -21.07747454 328.57045741 -10.6875 318.69921875 C-10.00558594 318.08175781 -9.32367188 317.46429688 -8.62109375 316.828125 C3.51301109 305.45398497 13.66104593 290.38627815 21.3125 275.69921875 C21.88226563 274.61253906 22.45203125 273.52585937 23.0390625 272.40625 C34.00516668 251.02959318 40.23462292 229.35447723 42.5 205.44921875 C42.5839502 204.57531494 42.66790039 203.70141113 42.75439453 202.80102539 C43.76041245 191.15359761 43.34173212 179.80086269 42 168.19921875 C41.88205078 167.07902344 41.76410156 165.95882812 41.64257812 164.8046875 C38.84770976 139.95185802 30.136081 115.17243086 17.3125 93.69921875 C16.6525 93.69921875 15.9925 93.69921875 15.3125 93.69921875 C15.23 93.16296875 15.1475 92.62671875 15.0625 92.07421875 C11.50328871 80.803383 -0.64209025 69.18934965 -8.6875 60.69921875 C-9.52925781 59.80460937 -10.37101562 58.91 -11.23828125 57.98828125 C-16.14317358 52.92012912 -21.17670197 48.32413168 -26.75 44.01171875 C-27.31041992 43.57730469 -27.87083984 43.14289063 -28.44824219 42.6953125 C-31.25790861 40.39474701 -31.25790861 40.39474701 -34.6875 39.69921875 C-34.6875 39.03921875 -34.6875 38.37921875 -34.6875 37.69921875 C-37.8180769 35.40396405 -41.31912248 33.6216586 -44.6875 31.69921875 C-45.8394618 31.00804167 -46.99046527 30.31526546 -48.140625 29.62109375 C-107.06518499 -5.38328837 -180.65888407 -2.26485869 -238.6875 32.69921875 Z M-131.37109375 72.15625 C-127.30576829 75.49432583 -125.4158936 77.41641633 -124.6875 82.69921875 C-124.56229685 85.85631443 -124.58492043 89.00866632 -124.60913086 92.16772461 C-124.61524432 94.12963304 -124.62117134 96.09154206 -124.62693787 98.05345154 C-124.63161009 99.08972624 -124.63628231 100.12600094 -124.64109612 101.1936779 C-124.66029166 106.6896814 -124.64506534 112.18562706 -124.63476562 117.68164062 C-124.62250625 124.671704 -124.62092897 131.66115415 -124.66333008 138.65112305 C-124.69671777 144.30475702 -124.69131042 149.95718097 -124.65976143 155.61081123 C-124.65483447 157.76337715 -124.66413273 159.91602473 -124.68797112 162.06846428 C-124.71938179 165.08078546 -124.701209 168.0890644 -124.67163086 171.10131836 C-124.69261337 171.98826385 -124.71359589 172.87520935 -124.73521423 173.78903198 C-124.65289774 177.57173793 -124.5852328 179.79737463 -121.84082222 182.55435371 C-119.66627955 184.19223485 -119.66627955 184.19223485 -117.40290165 185.52883244 C-116.83681911 185.91505992 -116.27073656 186.3012874 -115.6875 186.69921875 C-115.6875 187.35921875 -115.6875 188.01921875 -115.6875 188.69921875 C-114.945 188.96734375 -114.2025 189.23546875 -113.4375 189.51171875 C-110.79688051 190.65198626 -108.83197156 191.79302181 -106.6875 193.69921875 C-106.6875 194.35921875 -106.6875 195.01921875 -106.6875 195.69921875 C-105.97078125 195.94027344 -105.2540625 196.18132812 -104.515625 196.4296875 C-101.27406798 197.88480633 -99.11403054 199.67548995 -96.4375 202.01171875 C-91.37704123 206.35145781 -86.17680867 210.47067787 -80.875 214.51171875 C-80.17020508 215.05030518 -79.46541016 215.5888916 -78.73925781 216.14379883 C-75.43066628 218.65956073 -72.10258916 221.10839643 -68.67578125 223.4609375 C-67.68964844 224.19957031 -66.70351563 224.93820312 -65.6875 225.69921875 C-65.6875 226.35921875 -65.6875 227.01921875 -65.6875 227.69921875 C-64.945 227.96734375 -64.2025 228.23546875 -63.4375 228.51171875 C-60.79688051 229.65198626 -58.83197156 230.79302181 -56.6875 232.69921875 C-56.6875 233.35921875 -56.6875 234.01921875 -56.6875 234.69921875 C-55.6046875 235.07046875 -55.6046875 235.07046875 -54.5 235.44921875 C-51.41143418 236.82191467 -49.17738582 238.42275171 -46.6875 240.69921875 C-46.6875 241.35921875 -46.6875 242.01921875 -46.6875 242.69921875 C-45.63949219 243.03953125 -45.63949219 243.03953125 -44.5703125 243.38671875 C-41.07983787 244.97587793 -38.42404514 247.20161077 -35.5625 249.69921875 C-32.67848913 252.17932637 -29.8600641 254.58417602 -26.6875 256.69921875 C-26.6875 257.35921875 -26.6875 258.01921875 -26.6875 258.69921875 C-26.0275 258.69921875 -25.3675 258.69921875 -24.6875 258.69921875 C-21.49299564 264.57710677 -21.23167374 269.16441969 -22.6875 275.69921875 C-23.73828125 278 -23.73828125 278 -24.6875 279.69921875 C-25.3475 279.69921875 -26.0075 279.69921875 -26.6875 279.69921875 C-27.0175 280.68921875 -27.3475 281.67921875 -27.6875 282.69921875 C-33.11683546 285.36626073 -37.75136324 286.68549778 -43.6875 284.69921875 C-53.51564937 279.68018325 -62.17608829 271.34321935 -70.74609375 264.42578125 C-71.41495605 263.88711426 -72.08381836 263.34844727 -72.77294922 262.79345703 C-74.05965587 261.75589289 -75.34396983 260.71535215 -76.62548828 259.67138672 C-79.2362655 257.56347877 -81.71687315 255.68200945 -84.62109375 253.98046875 C-85.30300781 253.55765625 -85.98492187 253.13484375 -86.6875 252.69921875 C-86.6875 252.03921875 -86.6875 251.37921875 -86.6875 250.69921875 C-87.26628906 250.43109375 -87.84507812 250.16296875 -88.44140625 249.88671875 C-90.7362559 248.67344172 -92.59796078 247.31773759 -94.625 245.69921875 C-98.35202638 242.75170115 -102.10230028 239.83793149 -105.875 236.94921875 C-111.3218045 232.77147023 -116.72542429 228.54075687 -122.10620117 224.27832031 C-124.5856045 222.32012044 -127.05681042 220.45301181 -129.6875 218.69921875 C-129.6875 218.03921875 -129.6875 217.37921875 -129.6875 216.69921875 C-130.20828125 216.46203125 -130.7290625 216.22484375 -131.265625 215.98046875 C-134.47995117 214.27998652 -137.44614843 212.25700566 -140.4375 210.19921875 C-141.34048828 209.59400391 -141.34048828 209.59400391 -142.26171875 208.9765625 C-143.77472202 207.93701604 -145.23622163 206.82333032 -146.6875 205.69921875 C-146.6875 205.03921875 -146.6875 204.37921875 -146.6875 203.69921875 C-147.5228125 203.35890625 -147.5228125 203.35890625 -148.375 203.01171875 C-151.42560743 201.28029291 -153.42868761 199.38537402 -155.6875 196.69921875 C-157.04986372 191.29533981 -156.84229916 185.75241271 -156.84863281 180.21508789 C-156.85359772 179.17207016 -156.85856262 178.12905243 -156.86367798 177.0544281 C-156.87824752 173.61440363 -156.88509185 170.17442522 -156.890625 166.734375 C-156.89637939 164.33833312 -156.90213709 161.94229125 -156.90789795 159.54624939 C-156.91839217 154.52700588 -156.92424562 149.50777832 -156.92773438 144.48852539 C-156.93322507 138.06146431 -156.95727225 131.63461444 -156.98570633 125.20761967 C-157.00433802 120.26020186 -157.00953853 115.31283498 -157.01107025 110.36538506 C-157.01409454 107.995944 -157.02211549 105.62650379 -157.03525543 103.25709724 C-157.05233153 99.94214932 -157.05043195 96.62771834 -157.04394531 93.31274414 C-157.0531601 92.33745758 -157.06237488 91.36217102 -157.0718689 90.35733032 C-157.03074271 83.639669 -156.08182272 78.86314521 -151.9375 73.38671875 C-145.938698 68.88761725 -137.76184522 68.13643499 -131.37109375 72.15625 Z " fill="#060606" transform="translate(390.6875,61.30078125)"/>
</svg>
